<svg width="400" height="400" viewBox="0 0 400 400" fill="none" xmlns="http://www.w3.org/2000/svg">
<rect width="400" height="400" fill="url(#paint0_linear_2686_2145)"/>
<rect width="400" height="400" fill="url(#paint1_radial_2686_2145)" fill-opacity="0.47"/>
<rect width="400" height="400" fill="url(#paint2_radial_2686_2145)" fill-opacity="0.25"/>
<rect width="400" height="400" fill="url(#paint3_radial_2686_2145)"/>
<path d="M200 97.3201C172 97.3201 149.2 120.121 149.2 148.12C149.2 164.829 157.495 179.493 169.996 188.76L144.755 230.353C139.596 228.825 133.861 229.221 128.88 232.099C119.216 237.675 115.843 250.216 121.419 259.88C126.995 269.544 139.536 272.917 149.2 267.341C158.864 261.765 162.237 249.224 156.661 239.56C155.788 238.052 154.657 236.782 153.486 235.591L181.109 190.189L183.807 185.744L179.362 183.204C167.397 176.139 159.36 163.062 159.36 148.12C159.36 125.617 177.497 107.48 200 107.48C222.503 107.48 240.64 125.617 240.64 148.12C240.64 152.307 240.065 156.236 238.894 160.026L248.577 163.043C250.046 158.3 250.8 153.319 250.8 148.12C250.8 120.121 228 97.3201 200 97.3201ZM200 127.8C188.828 127.8 179.68 136.948 179.68 148.12C179.68 159.292 188.828 168.44 200 168.44C201.687 168.44 203.354 168.202 204.921 167.805L229.369 212.096L231.75 216.541L236.354 214.16C242.168 210.945 248.756 209.08 255.88 209.08C278.383 209.08 296.52 227.217 296.52 249.72C296.52 272.223 278.383 290.36 255.88 290.36C244.906 290.36 234.945 285.975 227.622 278.93L220.637 286.233C229.766 295.023 242.227 300.52 255.88 300.52C283.88 300.52 306.68 277.72 306.68 249.72C306.68 221.721 283.88 198.92 255.88 198.92C248.835 198.92 242.307 200.766 236.195 203.365L213.811 162.725C217.74 159.014 220.32 153.895 220.32 148.12C220.32 136.948 211.172 127.8 200 127.8ZM200 137.96C205.675 137.96 210.16 142.445 210.16 148.12C210.16 153.795 205.675 158.28 200 158.28C194.325 158.28 189.84 153.795 189.84 148.12C189.84 142.445 194.325 137.96 200 137.96ZM126.657 200.349C104.532 205.865 88.24 225.967 88.24 249.72C88.24 277.72 111.04 300.52 139.04 300.52C165.234 300.52 186.209 280.299 188.887 254.8H236.354C238.616 263.531 246.474 270.04 255.88 270.04C267.052 270.04 276.2 260.892 276.2 249.72C276.2 238.548 267.052 229.4 255.88 229.4C246.474 229.4 238.616 235.909 236.354 244.64H179.68V249.72C179.68 272.223 161.543 290.36 139.04 290.36C116.537 290.36 98.4 272.223 98.4 249.72C98.4 230.63 111.537 214.755 129.197 210.35L126.657 200.349ZM137.77 239.56C141.699 239.064 145.648 240.949 147.771 244.64C150.609 249.561 149.041 255.614 144.12 258.451C139.199 261.289 133.146 259.721 130.309 254.8C127.471 249.879 129.039 243.826 133.96 240.989C135.19 240.274 136.46 239.719 137.77 239.56ZM255.88 239.56C261.555 239.56 266.04 244.045 266.04 249.72C266.04 255.395 261.555 259.88 255.88 259.88C250.205 259.88 245.72 255.395 245.72 249.72C245.72 244.045 250.205 239.56 255.88 239.56Z" fill="white"/>
<defs>
<linearGradient id="paint0_linear_2686_2145" x1="200" y1="0" x2="200" y2="400" gradientUnits="userSpaceOnUse">
<stop stop-color="#4636F5"/>
<stop offset="1" stop-color="#1D66D2"/>
</linearGradient>
<radialGradient id="paint1_radial_2686_2145" cx="0" cy="0" r="1" gradientUnits="userSpaceOnUse" gradientTransform="translate(315.5 66) rotate(124.366) scale(446.426 348.915)">
<stop stop-color="#B551C6" stop-opacity="0.69"/>
<stop offset="1" stop-color="#7C5780" stop-opacity="0.19"/>
</radialGradient>
<radialGradient id="paint2_radial_2686_2145" cx="0" cy="0" r="1" gradientUnits="userSpaceOnUse" gradientTransform="translate(82 381) rotate(26.7481) scale(279.957)">
<stop stop-color="#FEFFBF"/>
<stop offset="1" stop-color="#FFEDBF" stop-opacity="0.14"/>
</radialGradient>
<radialGradient id="paint3_radial_2686_2145" cx="0" cy="0" r="1" gradientUnits="userSpaceOnUse" gradientTransform="translate(75 395) rotate(-18.1236) scale(581.868)">
<stop offset="0.166667" stop-color="#5080C9"/>
<stop offset="0.796875" stop-color="#6143CF"/>
</radialGradient>
</defs>
</svg>

